<svg data-v-423bf9ae="" xmlns="http://www.w3.org/2000/svg" viewBox="0 0 464.26828176190935 60" class="font"><!----><!----><!----><g data-v-423bf9ae="" id="aa3c499f-56f7-4ac7-883d-bd7d79bcf329" fill="black" transform="matrix(6.097560881055492,0,0,6.097560881055492,-1.0365920995002398,-19.390244247231145)"><path d="M3.70 13.02L3.70 13.02L2.52 13.02L2.52 13.02Q2.21 13.02 2.21 12.73L2.21 12.73L2.21 5.71L2.21 5.71Q2.21 5.56 2.06 5.56L2.06 5.56L0.46 5.56L0.46 5.56Q0.17 5.56 0.17 5.26L0.17 5.26L0.17 4.31L0.17 4.31Q0.17 4.02 0.46 4.02L0.46 4.02L5.75 4.02L5.75 4.02Q6.05 4.02 6.05 4.31L6.05 4.31L6.05 5.26L6.05 5.26Q6.05 5.56 5.75 5.56L5.75 5.56L4.16 5.56L4.16 5.56Q3.99 5.56 3.99 5.71L3.99 5.71L3.99 12.73L3.99 12.73Q3.99 13.02 3.70 13.02ZM8.46 13.02L8.46 13.02L7.27 13.02L7.27 13.02Q6.97 13.02 6.97 12.73L6.97 12.73L6.97 3.47L6.97 3.47Q6.97 3.18 7.27 3.18L7.27 3.18L8.46 3.18L8.46 3.18Q8.75 3.18 8.75 3.47L8.75 3.47L8.75 6.64L8.81 6.64L8.81 6.64Q9.11 5.88 10.18 5.88L10.18 5.88L10.63 5.88L10.63 5.88Q12.82 5.88 12.82 8.16L12.82 8.16L12.82 12.73L12.82 12.73Q12.82 13.02 12.52 13.02L12.52 13.02L11.34 13.02L11.34 13.02Q11.05 13.02 11.05 12.73L11.05 12.73L11.05 8.25L11.05 8.25Q11.05 7.80 10.86 7.61L10.86 7.61L10.86 7.61Q10.67 7.42 10.22 7.42L10.22 7.42L9.72 7.42L9.72 7.42Q8.75 7.42 8.75 8.48L8.75 8.48L8.75 12.73L8.75 12.73Q8.75 13.02 8.46 13.02ZM19.56 13.02L19.56 13.02L16.46 13.02L16.46 13.02Q15.36 13.02 14.76 12.43L14.76 12.43L14.76 12.43Q14.15 11.84 14.15 10.74L14.15 10.74L14.15 8.16L14.15 8.16Q14.15 7.06 14.76 6.47L14.76 6.47L14.76 6.47Q15.36 5.88 16.46 5.88L16.46 5.88L17.57 5.88L17.57 5.88Q18.68 5.88 19.28 6.47L19.28 6.47L19.28 6.47Q19.88 7.06 19.88 8.16L19.88 8.16L19.88 9.94L19.88 9.94Q19.88 10.23 19.59 10.23L19.59 10.23L16.07 10.23L16.07 10.23Q15.90 10.23 15.90 10.39L15.90 10.39L15.90 10.70L15.90 10.70Q15.90 11.13 16.09 11.32L16.09 11.32L16.09 11.32Q16.28 11.51 16.73 11.51L16.73 11.51L19.56 11.51L19.56 11.51Q19.85 11.51 19.85 11.82L19.85 11.82L19.85 12.74L19.85 12.74Q19.85 12.89 19.79 12.96L19.79 12.96L19.79 12.96Q19.73 13.02 19.56 13.02ZM16.07 9.04L16.07 9.04L17.98 9.04L17.98 9.04Q18.13 9.04 18.13 8.89L18.13 8.89L18.13 8.22L18.13 8.22Q18.13 7.77 17.95 7.59L17.95 7.59L17.95 7.59Q17.77 7.41 17.32 7.41L17.32 7.41L16.73 7.41L16.73 7.41Q16.28 7.41 16.10 7.59L16.10 7.59L16.10 7.59Q15.92 7.77 15.92 8.22L15.92 8.22L15.92 8.89L15.92 8.89Q15.92 9.04 16.07 9.04ZM25.91 13.02L25.91 13.02L24.72 13.02L24.72 13.02Q24.43 13.02 24.43 12.73L24.43 12.73L24.43 4.31L24.43 4.31Q24.43 4.02 24.72 4.02L24.72 4.02L28.06 4.02L28.06 4.02Q29.15 4.02 29.76 4.62L29.76 4.62L29.76 4.62Q30.38 5.22 30.38 6.31L30.38 6.31L30.38 7.41L30.38 7.41Q30.38 8.99 29.13 9.51L29.13 9.51L29.13 9.56L30.63 12.68L30.63 12.68Q30.76 13.02 30.39 13.02L30.39 13.02L29.26 13.02L29.26 13.02Q29.01 13.02 28.90 12.96L28.90 12.96L28.90 12.96Q28.78 12.91 28.71 12.73L28.71 12.73L27.31 9.70L26.38 9.70L26.38 9.70Q26.21 9.70 26.21 9.86L26.21 9.86L26.21 12.73L26.21 12.73Q26.21 13.02 25.91 13.02ZM26.36 8.27L26.36 8.27L27.73 8.27L27.73 8.27Q28.18 8.27 28.39 8.08L28.39 8.08L28.39 8.08Q28.60 7.90 28.60 7.48L28.60 7.48L28.60 6.38L28.60 6.38Q28.60 5.95 28.39 5.75L28.39 5.75L28.39 5.75Q28.18 5.56 27.73 5.56L27.73 5.56L26.36 5.56L26.36 5.56Q26.21 5.56 26.21 5.71L26.21 5.71L26.21 8.12L26.21 8.12Q26.21 8.27 26.36 8.27ZM37.21 13.02L37.21 13.02L34.12 13.02L34.12 13.02Q33.01 13.02 32.41 12.43L32.41 12.43L32.41 12.43Q31.81 11.84 31.81 10.74L31.81 10.74L31.81 8.16L31.81 8.16Q31.81 7.06 32.41 6.47L32.41 6.47L32.41 6.47Q33.01 5.88 34.12 5.88L34.12 5.88L35.22 5.88L35.22 5.88Q36.33 5.88 36.93 6.47L36.93 6.47L36.93 6.47Q37.53 7.06 37.53 8.16L37.53 8.16L37.53 9.94L37.53 9.94Q37.53 10.23 37.24 10.23L37.24 10.23L33.73 10.23L33.73 10.23Q33.56 10.23 33.56 10.39L33.56 10.39L33.56 10.70L33.56 10.70Q33.56 11.13 33.75 11.32L33.75 11.32L33.75 11.32Q33.94 11.51 34.38 11.51L34.38 11.51L37.21 11.51L37.21 11.51Q37.51 11.51 37.51 11.82L37.51 11.82L37.51 12.74L37.51 12.74Q37.51 12.89 37.44 12.96L37.44 12.96L37.44 12.96Q37.38 13.02 37.21 13.02ZM33.73 9.04L33.73 9.04L35.63 9.04L35.63 9.04Q35.78 9.04 35.78 8.89L35.78 8.89L35.78 8.22L35.78 8.22Q35.78 7.77 35.60 7.59L35.60 7.59L35.60 7.59Q35.42 7.41 34.97 7.41L34.97 7.41L34.38 7.41L34.38 7.41Q33.94 7.41 33.75 7.59L33.75 7.59L33.75 7.59Q33.57 7.77 33.57 8.22L33.57 8.22L33.57 8.89L33.57 8.89Q33.57 9.04 33.73 9.04ZM40.80 11.48L40.80 11.48L42.22 11.48L42.22 11.48Q42.67 11.48 42.86 11.29L42.86 11.29L42.86 11.29Q43.05 11.10 43.05 10.65L43.05 10.65L43.05 8.22L43.05 8.22Q43.05 7.77 42.86 7.58L42.86 7.58L42.86 7.58Q42.67 7.39 42.22 7.39L42.22 7.39L41.61 7.39L41.61 7.39Q40.64 7.39 40.64 8.46L40.64 8.46L40.64 11.33L40.64 11.33Q40.64 11.48 40.80 11.48ZM38.86 12.73L38.86 12.73L38.86 3.47L38.86 3.47Q38.86 3.18 39.16 3.18L39.16 3.18L40.35 3.18L40.35 3.18Q40.64 3.18 40.64 3.47L40.64 3.47L40.64 6.62L40.70 6.62L40.70 6.62Q40.85 6.24 41.24 6.05L41.24 6.05L41.24 6.05Q41.64 5.85 42.07 5.85L42.07 5.85L42.52 5.85L42.52 5.85Q43.62 5.85 44.23 6.44L44.23 6.44L44.23 6.44Q44.83 7.03 44.83 8.13L44.83 8.13L44.83 10.74L44.83 10.74Q44.83 11.84 44.23 12.43L44.23 12.43L44.23 12.43Q43.62 13.02 42.52 13.02L42.52 13.02L39.16 13.02L39.16 13.02Q38.86 13.02 38.86 12.73ZM48.73 13.02L48.73 13.02L48.40 13.02L48.40 13.02Q47.29 13.02 46.69 12.43L46.69 12.43L46.69 12.43Q46.09 11.84 46.09 10.74L46.09 10.74L46.09 8.16L46.09 8.16Q46.09 7.06 46.69 6.47L46.69 6.47L46.69 6.47Q47.29 5.88 48.40 5.88L48.40 5.88L51.63 5.88L51.63 5.88Q51.94 5.88 51.94 6.17L51.94 6.17L51.94 12.73L51.94 12.73Q51.94 13.02 51.63 13.02L51.63 13.02L50.46 13.02L50.46 13.02Q50.16 13.02 50.16 12.73L50.16 12.73L50.16 12.26L50.11 12.26L50.11 12.26Q49.95 12.64 49.56 12.83L49.56 12.83L49.56 12.83Q49.17 13.02 48.73 13.02ZM50.16 10.42L50.16 10.42L50.16 7.57L50.16 7.57Q50.16 7.42 49.99 7.42L49.99 7.42L48.68 7.42L48.68 7.42Q48.23 7.42 48.05 7.61L48.05 7.61L48.05 7.61Q47.87 7.80 47.87 8.25L47.87 8.25L47.87 10.65L47.87 10.65Q47.87 11.10 48.05 11.29L48.05 11.29L48.05 11.29Q48.23 11.48 48.68 11.48L48.68 11.48L49.20 11.48L49.20 11.48Q50.16 11.48 50.16 10.42ZM56.18 13.02L56.18 13.02L53.52 13.02L53.52 13.02Q53.24 13.02 53.24 12.73L53.24 12.73L53.24 11.83L53.24 11.83Q53.24 11.68 53.30 11.61L53.30 11.61L53.30 11.61Q53.35 11.55 53.52 11.55L53.52 11.55L55.86 11.55L55.86 11.55Q56.55 11.55 56.55 11.13L56.55 11.13L56.55 11.06L56.55 11.06Q56.55 10.72 55.97 10.42L55.97 10.42L54.59 9.65L54.59 9.65Q53.87 9.28 53.54 8.86L53.54 8.86L53.54 8.86Q53.20 8.44 53.20 7.78L53.20 7.78L53.20 7.78Q53.20 6.80 53.72 6.34L53.72 6.34L53.72 6.34Q54.24 5.88 55.34 5.88L55.34 5.88L57.68 5.88L57.68 5.88Q57.96 5.88 57.96 6.17L57.96 6.17L57.96 7.08L57.96 7.08Q57.96 7.24 57.90 7.30L57.90 7.30L57.90 7.30Q57.85 7.36 57.68 7.36L57.68 7.36L55.73 7.36L55.73 7.36Q55.05 7.36 55.05 7.71L55.05 7.71L55.05 7.78L55.05 7.78Q55.05 8.09 55.65 8.41L55.65 8.41L57.06 9.25L57.06 9.25Q57.79 9.65 58.09 10.06L58.09 10.06L58.09 10.06Q58.38 10.47 58.38 11.14L58.38 11.14L58.38 11.14Q58.38 13.02 56.18 13.02ZM64.88 13.02L64.88 13.02L61.78 13.02L61.78 13.02Q60.68 13.02 60.07 12.43L60.07 12.43L60.07 12.43Q59.47 11.84 59.47 10.74L59.47 10.74L59.47 8.16L59.47 8.16Q59.47 7.06 60.07 6.47L60.07 6.47L60.07 6.47Q60.68 5.88 61.78 5.88L61.78 5.88L62.89 5.88L62.89 5.88Q63.99 5.88 64.60 6.47L64.60 6.47L64.60 6.47Q65.20 7.06 65.20 8.16L65.20 8.16L65.20 9.94L65.20 9.94Q65.20 10.23 64.90 10.23L64.90 10.23L61.39 10.23L61.39 10.23Q61.22 10.23 61.22 10.39L61.22 10.39L61.22 10.70L61.22 10.70Q61.22 11.13 61.41 11.32L61.41 11.32L61.41 11.32Q61.60 11.51 62.05 11.51L62.05 11.51L64.88 11.51L64.88 11.51Q65.17 11.51 65.17 11.82L65.17 11.82L65.17 12.74L65.17 12.74Q65.17 12.89 65.11 12.96L65.11 12.96L65.11 12.96Q65.04 13.02 64.88 13.02ZM61.39 9.04L61.39 9.04L63.29 9.04L63.29 9.04Q63.45 9.04 63.45 8.89L63.45 8.89L63.45 8.22L63.45 8.22Q63.45 7.77 63.27 7.59L63.27 7.59L63.27 7.59Q63.08 7.41 62.64 7.41L62.64 7.41L62.05 7.41L62.05 7.41Q61.60 7.41 61.42 7.59L61.42 7.59L61.42 7.59Q61.24 7.77 61.24 8.22L61.24 8.22L61.24 8.89L61.24 8.89Q61.24 9.04 61.39 9.04ZM68.01 13.02L68.01 13.02L66.82 13.02L66.82 13.02Q66.53 13.02 66.53 12.73L66.53 12.73L66.53 6.17L66.53 6.17Q66.53 5.88 66.82 5.88L66.82 5.88L68.01 5.88L68.01 5.88Q68.31 5.88 68.31 6.17L68.31 6.17L68.31 6.65L68.36 6.65L68.36 6.65Q68.52 6.27 68.91 6.08L68.91 6.08L68.91 6.08Q69.30 5.88 69.73 5.88L69.73 5.88L70.24 5.88L70.24 5.88Q70.52 5.88 70.52 6.17L70.52 6.17L70.52 7.14L70.52 7.14Q70.52 7.31 70.46 7.37L70.46 7.37L70.46 7.37Q70.39 7.43 70.24 7.42L70.24 7.42L69.27 7.42L69.27 7.42Q68.31 7.42 68.31 8.51L68.31 8.51L68.31 12.73L68.31 12.73Q68.31 13.02 68.01 13.02ZM74.12 13.02L74.12 13.02L71.46 13.02L71.46 13.02Q71.18 13.02 71.18 12.73L71.18 12.73L71.18 11.83L71.18 11.83Q71.18 11.68 71.23 11.61L71.23 11.61L71.23 11.61Q71.29 11.55 71.46 11.55L71.46 11.55L73.79 11.55L73.79 11.55Q74.48 11.55 74.48 11.13L74.48 11.13L74.48 11.06L74.48 11.06Q74.48 10.72 73.91 10.42L73.91 10.42L72.52 9.65L72.52 9.65Q71.81 9.28 71.47 8.86L71.47 8.86L71.47 8.86Q71.13 8.44 71.13 7.78L71.13 7.78L71.13 7.78Q71.13 6.80 71.65 6.34L71.65 6.34L71.65 6.34Q72.17 5.88 73.28 5.88L73.28 5.88L75.61 5.88L75.61 5.88Q75.89 5.88 75.89 6.17L75.89 6.17L75.89 7.08L75.89 7.08Q75.89 7.24 75.84 7.30L75.84 7.30L75.84 7.30Q75.78 7.36 75.61 7.36L75.61 7.36L73.67 7.36L73.67 7.36Q72.98 7.36 72.98 7.71L72.98 7.71L72.98 7.78L72.98 7.78Q72.98 8.09 73.58 8.41L73.58 8.41L75.00 9.25L75.00 9.25Q75.73 9.65 76.02 10.06L76.02 10.06L76.02 10.06Q76.31 10.47 76.31 11.14L76.31 11.14L76.31 11.14Q76.31 13.02 74.12 13.02Z"></path></g><!----><!----></svg>